#!OML:ASF C:\Vicon Data\Big\jianyuan-13\jianyuan\Session 1\Capture.male.ASF
:FULLY-SPECIFIED
:DEGREES
126
root -7.759177 17.457953 -15.907730 7.780155 6.599164 0.720193
lowerback -10.762659 2.367841 -1.724633 
upperback 2.568902 3.483181 -0.866419 
thorax 8.736995 1.622563 0.678314 
lowerneck -8.188311 -3.107902 2.202561 
upperneck 2.057750 -4.289242 -1.782512 
head 1.962436 -2.168574 -1.118864 
rclavicle 0.000000 0.000000 
rhumerus -26.423761 1.201760 -93.790741 
rradius 47.862299 
rwrist 7.899253 
rhand -15.246423 -19.123282 
rfingers 0.000000 
rthumb 10.927110 -48.818983 
lclavicle 0.000000 0.000000 
lhumerus -50.220759 35.498189 59.559392 
lradius 24.743153 
lwrist -59.408044 
lhand -19.714125 0.198899 
lfingers 0.000000 
lthumb 6.615790 30.075574 
rfemur 0.720013 4.759455 25.268441 
rtibia 21.005855 
rfoot -21.030612 -7.057899 
rtoes -28.334846 
lfemur -25.872160 -3.570805 -18.203662 
ltibia 13.312568 
lfoot -4.508654 10.942762 
ltoes -35.876656 
127
root -7.715778 17.469313 -15.798240 7.879999 6.608325 0.794374
lowerback -10.887709 2.331553 -1.839637 
upperback 2.538910 3.454163 -0.875785 
thorax 8.771474 1.602019 0.732629 
lowerneck -8.202856 -3.109693 2.179203 
upperneck 2.018627 -4.287388 -1.838636 
head 1.951639 -2.169693 -1.132270 
rclavicle 0.000000 0.000000 
rhumerus -26.584020 0.836359 -93.683998 
rradius 47.605842 
rwrist 8.302809 
rhand -15.250940 -19.098417 
rfingers 0.000000 
rthumb 10.922708 -48.794264 
lclavicle 0.000000 0.000000 
lhumerus -50.493710 36.036935 59.029158 
lradius 24.536606 
lwrist -60.074923 
lhand -19.726732 0.035840 
lfingers 0.000000 
lthumb 6.603638 29.912865 
rfemur 1.046691 4.780587 25.128519 
rtibia 20.951984 
rfoot -20.555723 -7.353936 
rtoes -29.872552 
lfemur -25.934305 -3.656367 -18.421170 
ltibia 13.948745 
lfoot -4.413985 11.115156 
ltoes -34.983798 
128
root -7.671355 17.477325 -15.687539 7.928929 6.647343 0.805886
lowerback -10.961581 2.299491 -1.854558 
upperback 2.501371 3.415778 -0.891718 
thorax 8.774524 1.583070 0.719645 
lowerneck -8.198362 -3.116873 2.185819 
upperneck 2.013251 -4.294979 -1.900572 
head 1.947617 -2.175192 -1.153226 
rclavicle 0.000000 0.000000 
rhumerus -26.792581 0.458955 -93.644865 
rradius 47.287558 
rwrist 8.473415 
rhand -15.460841 -19.073897 
rfingers 0.000000 
rthumb 10.720275 -48.780363 
lclavicle 0.000000 0.000000 
lhumerus -50.519542 35.978032 59.030627 
lradius 24.472123 
lwrist -60.033166 
lhand -19.734623 0.038291 
lfingers 0.000000 
lthumb 6.596033 29.915526 
rfemur 1.396423 4.682299 25.003968 
rtibia 20.961262 
rfoot -20.116455 -7.441670 
rtoes -30.408210 
lfemur -25.963020 -3.730871 -18.603187 
ltibia 14.668131 
lfoot -4.370298 11.102161 
ltoes -34.573197 
129
root -7.622790 17.487141 -15.579151 8.009814 6.655354 0.864512
lowerback -11.014498 2.276035 -1.837231 
upperback 2.454542 3.388452 -0.965059 
thorax 8.760628 1.573265 0.628447 
lowerneck -8.203884 -3.110089 2.204944 
upperneck 1.998585 -4.288638 -1.886482 
head 1.943840 -2.171519 -1.151639 
rclavicle 0.000000 0.000000 
rhumerus -27.039789 0.051283 -93.624278 
rradius 46.970871 
rwrist 8.634607 
rhand -15.597199 -19.036683 
rfingers 0.000000 
rthumb 10.588708 -48.749930 
lclavicle 0.000000 0.000000 
lhumerus -50.608300 36.125684 58.825358 
lradius 24.407088 
lwrist -60.298753 
lhand -19.665138 0.062299 
lfingers 0.000000 
lthumb 6.663063 29.937450 
rfemur 1.708238 4.829053 24.779881 
rtibia 21.052461 
rfoot -19.743353 -7.314013 
rtoes -29.860998 
lfemur -25.979076 -3.713384 -18.886315 
ltibia 15.300582 
lfoot -4.251224 10.793920 
ltoes -34.434734 
130
root -7.579291 17.494073 -15.465379 8.092808 6.594384 0.843856
lowerback -11.110002 2.303117 -1.839074 
upperback 2.394301 3.426844 -0.976281 
thorax 8.750470 1.592287 0.627431 
lowerneck -8.211156 -3.138705 2.165009 
upperneck 2.031410 -4.321061 -1.923024 
head 1.955272 -2.188999 -1.158493 
rclavicle 0.000000 0.000000 
rhumerus -27.312987 -0.601060 -93.440601 
rradius 46.591838 
rwrist 9.208011 
rhand -15.622037 -18.976885 
rfingers 0.000000 
rthumb 10.564735 -48.691378 
lclavicle 0.000000 0.000000 
lhumerus -50.872560 36.553808 58.301800 
lradius 24.189686 
lwrist -61.155700 
lhand -19.747018 -0.176966 
lfingers 0.000000 
lthumb 6.584048 29.700673 
rfemur 1.884940 4.825753 24.661277 
rtibia 21.201053 
rfoot -19.132153 -7.383188 
rtoes -31.085291 
lfemur -25.983585 -3.582791 -19.067593 
ltibia 15.892864 
lfoot -4.092009 10.444400 
ltoes -33.704644 
131
root -7.524040 17.504525 -15.356193 8.272253 6.660938 0.931605
lowerback -11.231835 2.263809 -1.876043 
upperback 2.290605 3.383620 -1.016535 
thorax 8.709690 1.571426 0.600519 
lowerneck -8.234037 -3.138631 2.172970 
upperneck 2.093892 -4.321158 -1.936332 
head 1.979600 -2.189190 -1.165961 
rclavicle 0.000000 0.000000 
rhumerus -27.698309 -0.878825 -93.323783 
rradius 46.199560 
rwrist 9.192190 
rhand -15.803126 -18.764784 
rfingers 0.000000 
rthumb 10.390099 -48.488069 
lclavicle 0.000000 0.000000 
lhumerus -50.603030 35.873264 58.992162 
lradius 24.361066 
lwrist -60.352966 
lhand -19.672133 0.027068 
lfingers 0.000000 
lthumb 6.656353 29.902446 
rfemur 1.992287 5.096666 24.419381 
rtibia 21.508908 
rfoot -18.838990 -7.382824 
rtoes -30.385612 
lfemur -26.044142 -3.725863 -19.337282 
ltibia 16.324383 
lfoot -3.907429 10.271565 
ltoes -32.396480 
